<?xml version="1.0" encoding="utf-8"?>
<!-- Generator: Adobe Illustrator 19.2.1, SVG Export Plug-In . SVG Version: 6.00 Build 0)  -->
<svg version="1.1" id="Layer_1" xmlns="http://www.w3.org/2000/svg" xmlns:xlink="http://www.w3.org/1999/xlink" x="0px" y="0px"
	 viewBox="0 0 614.5 217.8" enable-background="new 0 0 614.5 217.8" xml:space="preserve">
<title>b-mind-logo-horizontal-bold</title>
<path fill="#2230ef" d="M599.5,15v187.8H15V15H599.5 M614.5,0H0v217.8h614.5V0L614.5,0z"/>
<path fill="#2230ef" d="M295.4,35h-2.5l-1.8,1.8l-46.8,46.8l-46.6-46.8L196,35h-12.5v47.9H119c9.2-14.7,4.7-34-10-43.1
	c-4.9-3.2-10.7-4.8-16.6-4.8H35v116.3h60.1c18.9,0,34.2-15.3,34.2-34.2c0-7-2.1-13.8-6.1-19.5h60.2v53.7h14.8V58.1l41.9,41.9
	l4.2,4.2l4.2-4.2l42-41.9v93.2h14.8V35H295.4L295.4,35z M114.5,117.1c0,10.7-8.7,19.4-19.4,19.4H49.8V97.6h45.3
	C105.8,97.6,114.5,106.3,114.5,117.1z M92.4,82.9H49.8v-33h42.7c9.1,0.4,16.1,8.2,15.7,17.3C107.7,75.7,100.9,82.4,92.4,82.9z"/>
<path fill="#2230ef" d="M324.5,66.4v84.9h14.6V66.4H324.5z"/>
<path fill="#2230ef" d="M449.3,35h-6v90.3l-69.8-88l-1.8-2.3h-13.5v116.3H373V61l70.1,88.1l1.8,2.3h13.2V35H449.3z"/>
<path fill="#2230ef" d="M521.5,35h-45.2v116.3h45.1c32.1,0,58.2-26,58.2-58.1S553.6,35,521.5,35L521.5,35z M551.8,123.9
	c-8.2,8.2-19.3,12.7-30.8,12.7h-30V49.8h30c24-0.1,43.4,19.3,43.5,43.2C564.6,104.6,560,115.7,551.8,123.9z"/>
<circle fill="#2230ef" cx="191" cy="90.1" r="14.5"/>
<rect x="35" y="167.9" fill="#2230ef" width="544.5" height="14.8"/>
<rect x="324.5" y="35" fill="#2230ef" width="14.8" height="14.8"/>
</svg>
